<mxfile host="Electron" modified="2024-05-12T20:45:42.823Z" agent="Mozilla/5.0 (Windows NT 10.0; Win64; x64) AppleWebKit/537.36 (KHTML, like Gecko) draw.io/24.2.5 Chrome/120.0.6099.109 Electron/28.1.0 Safari/537.36" etag="iB5vPVui49JwutnpSLS1" version="24.2.5" type="device">
  <diagram name="Pagina-1" id="mD4ny_UwJCW5K_lFAApE">
    <mxGraphModel dx="740" dy="433" grid="1" gridSize="10" guides="1" tooltips="1" connect="1" arrows="1" fold="1" page="1" pageScale="1" pageWidth="827" pageHeight="1169" math="0" shadow="0">
      <root>
        <mxCell id="0" />
        <mxCell id="1" parent="0" />
        <mxCell id="lw672kC3N5lEj6GLX2pY-3" style="edgeStyle=orthogonalEdgeStyle;rounded=0;orthogonalLoop=1;jettySize=auto;html=1;exitX=0.75;exitY=0;exitDx=0;exitDy=0;endArrow=oval;endFill=0;" edge="1" parent="1">
          <mxGeometry relative="1" as="geometry">
            <mxPoint x="420.56999999999994" y="154.73000000000002" as="targetPoint" />
            <mxPoint x="422.0699999999999" y="170.98000000000002" as="sourcePoint" />
          </mxGeometry>
        </mxCell>
        <mxCell id="lw672kC3N5lEj6GLX2pY-4" style="edgeStyle=orthogonalEdgeStyle;rounded=0;orthogonalLoop=1;jettySize=auto;html=1;exitX=1;exitY=0.5;exitDx=0;exitDy=0;entryX=0.25;entryY=1;entryDx=0;entryDy=0;endArrow=oval;endFill=0;" edge="1" parent="1">
          <mxGeometry relative="1" as="geometry">
            <mxPoint x="429.74" y="241.10500000000002" as="sourcePoint" />
            <mxPoint x="465.74" y="233.48000000000002" as="targetPoint" />
          </mxGeometry>
        </mxCell>
        <mxCell id="lw672kC3N5lEj6GLX2pY-6" value="&lt;font style=&quot;font-size: 8px;&quot;&gt;Nome&lt;/font&gt;" style="text;html=1;align=center;verticalAlign=middle;whiteSpace=wrap;rounded=1;strokeColor=none;" vertex="1" parent="1">
          <mxGeometry x="328.07" y="203.49" width="28.61" height="8.48" as="geometry" />
        </mxCell>
        <mxCell id="lw672kC3N5lEj6GLX2pY-7" value="&lt;font style=&quot;font-size: 8px;&quot;&gt;Descrizione&lt;/font&gt;" style="text;html=1;align=center;verticalAlign=middle;whiteSpace=wrap;rounded=1;strokeColor=none;" vertex="1" parent="1">
          <mxGeometry x="402.85999999999996" y="134.73" width="40" height="20" as="geometry" />
        </mxCell>
        <mxCell id="lw672kC3N5lEj6GLX2pY-8" value="&lt;font style=&quot;font-size: 8px;&quot;&gt;Durata&lt;/font&gt;" style="text;html=1;align=center;verticalAlign=middle;whiteSpace=wrap;rounded=1;strokeColor=none;" vertex="1" parent="1">
          <mxGeometry x="453.86" y="166.98000000000002" width="40" height="20" as="geometry" />
        </mxCell>
        <mxCell id="lw672kC3N5lEj6GLX2pY-10" value="&lt;font style=&quot;font-size: 8px;&quot;&gt;Luogo&lt;/font&gt;" style="text;html=1;align=center;verticalAlign=middle;whiteSpace=wrap;rounded=1;strokeColor=none;" vertex="1" parent="1">
          <mxGeometry x="452.86" y="180.48000000000002" width="40" height="20" as="geometry" />
        </mxCell>
        <mxCell id="lw672kC3N5lEj6GLX2pY-14" value="" style="shape=singleArrow;direction=north;whiteSpace=wrap;html=1;arrowWidth=0.3808905843098993;arrowSize=0.6576580700573631;" vertex="1" parent="1">
          <mxGeometry x="372.85999999999996" y="198.48000000000002" width="30" height="18.5" as="geometry" />
        </mxCell>
        <mxCell id="lw672kC3N5lEj6GLX2pY-15" value="" style="endArrow=none;html=1;rounded=0;exitX=0.475;exitY=0.003;exitDx=0;exitDy=0;exitPerimeter=0;" edge="1" parent="1" source="lw672kC3N5lEj6GLX2pY-36">
          <mxGeometry width="50" height="50" relative="1" as="geometry">
            <mxPoint x="268.48" y="221.98000000000002" as="sourcePoint" />
            <mxPoint x="325.48" y="216.98000000000002" as="targetPoint" />
          </mxGeometry>
        </mxCell>
        <mxCell id="lw672kC3N5lEj6GLX2pY-16" value="" style="endArrow=none;html=1;rounded=0;" edge="1" parent="1">
          <mxGeometry width="50" height="50" relative="1" as="geometry">
            <mxPoint x="324.98" y="216.98000000000002" as="sourcePoint" />
            <mxPoint x="448.98" y="216.98000000000002" as="targetPoint" />
          </mxGeometry>
        </mxCell>
        <mxCell id="lw672kC3N5lEj6GLX2pY-17" value="" style="endArrow=none;html=1;rounded=0;entryX=0.476;entryY=-0.004;entryDx=0;entryDy=0;entryPerimeter=0;" edge="1" parent="1" target="lw672kC3N5lEj6GLX2pY-38">
          <mxGeometry width="50" height="50" relative="1" as="geometry">
            <mxPoint x="448.48" y="216.98000000000002" as="sourcePoint" />
            <mxPoint x="528.48" y="171.98000000000002" as="targetPoint" />
          </mxGeometry>
        </mxCell>
        <mxCell id="lw672kC3N5lEj6GLX2pY-18" style="edgeStyle=orthogonalEdgeStyle;rounded=0;orthogonalLoop=1;jettySize=auto;html=1;exitX=1;exitY=0.5;exitDx=0;exitDy=0;endArrow=oval;endFill=0;" edge="1" parent="1">
          <mxGeometry relative="1" as="geometry">
            <mxPoint x="432.86" y="178.78" as="sourcePoint" />
            <mxPoint x="455.98" y="178.78" as="targetPoint" />
          </mxGeometry>
        </mxCell>
        <mxCell id="lw672kC3N5lEj6GLX2pY-19" style="edgeStyle=orthogonalEdgeStyle;rounded=0;orthogonalLoop=1;jettySize=auto;html=1;exitX=1;exitY=0.5;exitDx=0;exitDy=0;endArrow=oval;endFill=0;" edge="1" parent="1">
          <mxGeometry relative="1" as="geometry">
            <mxPoint x="432.86" y="192.48000000000002" as="sourcePoint" />
            <mxPoint x="455.86" y="192.48000000000002" as="targetPoint" />
            <Array as="points">
              <mxPoint x="448.86" y="192.48000000000002" />
            </Array>
          </mxGeometry>
        </mxCell>
        <mxCell id="lw672kC3N5lEj6GLX2pY-20" value="" style="curved=1;endArrow=oval;html=1;rounded=0;endFill=1;" edge="1" parent="1">
          <mxGeometry width="50" height="50" relative="1" as="geometry">
            <mxPoint x="344" y="200.48" as="sourcePoint" />
            <mxPoint x="334" y="189.48" as="targetPoint" />
            <Array as="points">
              <mxPoint x="334" y="200.48" />
            </Array>
          </mxGeometry>
        </mxCell>
        <mxCell id="lw672kC3N5lEj6GLX2pY-21" value="" style="endArrow=none;html=1;rounded=0;entryX=0.022;entryY=0.849;entryDx=0;entryDy=0;entryPerimeter=0;" edge="1" parent="1" target="lw672kC3N5lEj6GLX2pY-22">
          <mxGeometry width="50" height="50" relative="1" as="geometry">
            <mxPoint x="280" y="194" as="sourcePoint" />
            <mxPoint x="230" y="190" as="targetPoint" />
            <Array as="points" />
          </mxGeometry>
        </mxCell>
        <mxCell id="lw672kC3N5lEj6GLX2pY-22" value="Esperienza" style="whiteSpace=wrap;html=1;align=center;" vertex="1" parent="1">
          <mxGeometry x="342.85999999999996" y="169.73000000000002" width="90" height="28.75" as="geometry" />
        </mxCell>
        <mxCell id="lw672kC3N5lEj6GLX2pY-31" style="edgeStyle=orthogonalEdgeStyle;rounded=0;orthogonalLoop=1;jettySize=auto;html=1;exitX=0.75;exitY=0;exitDx=0;exitDy=0;endArrow=oval;endFill=0;" edge="1" parent="1">
          <mxGeometry relative="1" as="geometry">
            <mxPoint x="313.82000000000005" y="262.32" as="targetPoint" />
            <mxPoint x="312.44999999999993" y="245.60000000000002" as="sourcePoint" />
          </mxGeometry>
        </mxCell>
        <mxCell id="lw672kC3N5lEj6GLX2pY-32" style="edgeStyle=orthogonalEdgeStyle;rounded=0;orthogonalLoop=1;jettySize=auto;html=1;exitX=1;exitY=0.5;exitDx=0;exitDy=0;endArrow=oval;endFill=0;" edge="1" parent="1">
          <mxGeometry relative="1" as="geometry">
            <mxPoint x="295.32000000000005" y="245.6" as="sourcePoint" />
            <mxPoint x="272.32000000000005" y="245.35" as="targetPoint" />
            <Array as="points">
              <mxPoint x="288.32000000000005" y="245.6" />
            </Array>
          </mxGeometry>
        </mxCell>
        <mxCell id="lw672kC3N5lEj6GLX2pY-33" value="&lt;font style=&quot;font-size: 8px;&quot;&gt;Causa&lt;/font&gt;" style="text;html=1;align=center;verticalAlign=middle;whiteSpace=wrap;rounded=1;strokeColor=none;" vertex="1" parent="1">
          <mxGeometry x="294" y="258.3" width="40" height="20" as="geometry" />
        </mxCell>
        <mxCell id="lw672kC3N5lEj6GLX2pY-34" value="&lt;font style=&quot;font-size: 8px;&quot;&gt;Data&lt;/font&gt;" style="text;html=1;align=center;verticalAlign=middle;whiteSpace=wrap;rounded=1;strokeColor=none;" vertex="1" parent="1">
          <mxGeometry x="238" y="234" width="40" height="20" as="geometry" />
        </mxCell>
        <mxCell id="lw672kC3N5lEj6GLX2pY-35" value="&lt;span style=&quot;font-size: 8px;&quot;&gt;Mestiere&lt;/span&gt;" style="text;html=1;align=center;verticalAlign=middle;whiteSpace=wrap;rounded=1;strokeColor=none;" vertex="1" parent="1">
          <mxGeometry x="411.61" y="275.90999999999997" width="40" height="20" as="geometry" />
        </mxCell>
        <mxCell id="lw672kC3N5lEj6GLX2pY-36" value="Evento Storico" style="whiteSpace=wrap;html=1;align=center;" vertex="1" parent="1">
          <mxGeometry x="286.61" y="230.11" width="82" height="20" as="geometry" />
        </mxCell>
        <mxCell id="lw672kC3N5lEj6GLX2pY-37" style="edgeStyle=orthogonalEdgeStyle;rounded=0;orthogonalLoop=1;jettySize=auto;html=1;exitX=0.25;exitY=1;exitDx=0;exitDy=0;endArrow=oval;endFill=0;" edge="1" parent="1" source="lw672kC3N5lEj6GLX2pY-38">
          <mxGeometry relative="1" as="geometry">
            <mxPoint x="431.1538461538462" y="280" as="targetPoint" />
          </mxGeometry>
        </mxCell>
        <mxCell id="lw672kC3N5lEj6GLX2pY-38" value="AttivitÃ  quotidiana" style="whiteSpace=wrap;html=1;align=center;" vertex="1" parent="1">
          <mxGeometry x="411.61" y="230.11" width="78.39" height="29.89" as="geometry" />
        </mxCell>
        <mxCell id="lw672kC3N5lEj6GLX2pY-39" style="edgeStyle=orthogonalEdgeStyle;rounded=0;orthogonalLoop=1;jettySize=auto;html=1;exitX=0;exitY=1;exitDx=0;exitDy=0;entryX=0.047;entryY=0.099;entryDx=0;entryDy=0;entryPerimeter=0;endArrow=oval;endFill=0;" edge="1" parent="1" source="lw672kC3N5lEj6GLX2pY-22" target="lw672kC3N5lEj6GLX2pY-6">
          <mxGeometry relative="1" as="geometry">
            <Array as="points">
              <mxPoint x="329" y="199" />
            </Array>
          </mxGeometry>
        </mxCell>
        <mxCell id="lw672kC3N5lEj6GLX2pY-40" value="&lt;font style=&quot;font-size: 8px;&quot;&gt;Significato&lt;/font&gt;&lt;div style=&quot;line-height: 20%;&quot;&gt;&lt;font style=&quot;font-size: 8px;&quot;&gt;Storico&lt;/font&gt;&lt;/div&gt;" style="text;html=1;align=center;verticalAlign=middle;whiteSpace=wrap;rounded=1;strokeColor=none;" vertex="1" parent="1">
          <mxGeometry x="477.47" y="265" width="40" height="20" as="geometry" />
        </mxCell>
        <mxCell id="lw672kC3N5lEj6GLX2pY-41" style="edgeStyle=orthogonalEdgeStyle;rounded=0;orthogonalLoop=1;jettySize=auto;html=1;exitX=0.75;exitY=0;exitDx=0;exitDy=0;endArrow=oval;endFill=0;" edge="1" parent="1">
          <mxGeometry relative="1" as="geometry">
            <mxPoint x="473.55" y="275.3" as="targetPoint" />
            <mxPoint x="472.17000000000013" y="260.01" as="sourcePoint" />
          </mxGeometry>
        </mxCell>
      </root>
    </mxGraphModel>
  </diagram>
</mxfile>
